<?xml version="1.0" standalone="no"?>
<!DOCTYPE svg PUBLIC "-//W3C//DTD SVG 20010904//EN"
 "http://www.w3.org/TR/2001/REC-SVG-20010904/DTD/svg10.dtd">
<svg version="1.0" xmlns="http://www.w3.org/2000/svg"
 width="100.000000pt" height="100.000000pt" viewBox="0 0 100.000000 100.000000"
 preserveAspectRatio="xMidYMid meet">
<metadata>
Created by potrace 1.11, written by Peter Selinger 2001-2013
</metadata>
<g transform="translate(0.000000,100.000000) scale(0.100000,-0.100000)"
fill="#000000" stroke="none">
<path d="M429 876 c-51 -18 -98 -49 -138 -90 l-34 -35 22 -18 c20 -16 23 -29
25 -106 2 -60 7 -92 18 -104 8 -10 20 -34 27 -53 6 -19 21 -44 32 -56 37 -39
22 -62 -59 -96 -40 -17 -89 -45 -108 -63 -31 -29 -34 -37 -34 -89 l0 -56 320
0 320 0 6 26 c10 41 -13 100 -51 129 -18 15 -64 39 -102 55 -76 32 -90 56 -54
94 11 12 26 37 32 56 7 19 20 45 29 57 13 17 16 43 16 131 -1 108 -2 111 -30
141 -17 17 -37 31 -46 31 -9 0 -25 9 -35 20 -17 19 -74 40 -105 40 -8 -1 -31
-7 -51 -14z m129 -41 c17 -14 37 -25 46 -25 9 0 28 -11 41 -25 22 -21 25 -32
24 -92 -1 -67 -1 -67 -10 -24 -9 44 -42 91 -65 91 -6 0 -25 -7 -40 -15 -16 -8
-40 -15 -54 -15 -39 0 -103 -20 -124 -38 -10 -10 -25 -30 -32 -47 l-13 -30 -1
46 c0 25 -7 54 -15 65 -20 26 -19 29 18 64 76 72 171 91 225 45z m57 -125 c11
-13 20 -41 23 -76 3 -41 8 -54 18 -50 10 4 14 -3 14 -19 0 -15 -6 -25 -14 -25
-8 0 -17 -15 -21 -37 -4 -21 -15 -49 -26 -64 -25 -36 -91 -61 -136 -53 -49 9
-99 62 -108 113 -4 25 -12 41 -21 41 -8 0 -14 10 -14 25 0 18 4 23 15 19 10
-4 15 0 15 15 0 57 48 100 113 102 18 0 48 6 67 13 49 19 55 19 75 -4z m-115
-352 c14 0 37 3 53 7 25 7 27 5 27 -23 0 -47 -30 -77 -78 -77 -53 0 -72 18
-72 67 0 37 2 40 23 33 12 -4 33 -7 47 -7z m-100 -52 c0 -27 59 -66 100 -66
41 0 100 39 100 66 0 19 0 19 78 -16 87 -40 122 -73 122 -117 l0 -33 -300 0
-300 0 0 33 c0 43 35 77 120 116 75 35 80 36 80 17z"/>
<path d="M414 579 c-10 -17 13 -36 27 -22 12 12 4 33 -11 33 -5 0 -12 -5 -16
-11z"/>
<path d="M554 579 c-10 -17 13 -36 27 -22 12 12 4 33 -11 33 -5 0 -12 -5 -16
-11z"/>
<path d="M240 175 c0 -8 5 -15 10 -15 6 0 10 7 10 15 0 8 -4 15 -10 15 -5 0
-10 -7 -10 -15z"/>
<path d="M290 175 c0 -8 5 -15 10 -15 6 0 10 7 10 15 0 8 -4 15 -10 15 -5 0
-10 -7 -10 -15z"/>
<path d="M340 175 c0 -8 5 -15 10 -15 6 0 10 7 10 15 0 8 -4 15 -10 15 -5 0
-10 -7 -10 -15z"/>
<path d="M390 175 c0 -8 5 -15 10 -15 6 0 10 7 10 15 0 8 -4 15 -10 15 -5 0
-10 -7 -10 -15z"/>
<path d="M440 175 c0 -8 5 -15 10 -15 6 0 10 7 10 15 0 8 -4 15 -10 15 -5 0
-10 -7 -10 -15z"/>
<path d="M490 175 c0 -8 5 -15 10 -15 6 0 10 7 10 15 0 8 -4 15 -10 15 -5 0
-10 -7 -10 -15z"/>
<path d="M540 175 c0 -8 5 -15 10 -15 6 0 10 7 10 15 0 8 -4 15 -10 15 -5 0
-10 -7 -10 -15z"/>
<path d="M590 175 c0 -8 5 -15 10 -15 6 0 10 7 10 15 0 8 -4 15 -10 15 -5 0
-10 -7 -10 -15z"/>
<path d="M640 175 c0 -8 5 -15 10 -15 6 0 10 7 10 15 0 8 -4 15 -10 15 -5 0
-10 -7 -10 -15z"/>
<path d="M690 175 c0 -8 5 -15 10 -15 6 0 10 7 10 15 0 8 -4 15 -10 15 -5 0
-10 -7 -10 -15z"/>
<path d="M740 175 c0 -8 5 -15 10 -15 6 0 10 7 10 15 0 8 -4 15 -10 15 -5 0
-10 -7 -10 -15z"/>
</g>
</svg>
